<svg xmlns="http://www.w3.org/2000/svg" version="1.1" xmlns:xlink="http://www.w3.org/1999/xlink" xmlns:svgjs="http://svgjs.dev/svgjs" width="1000" height="656" viewBox="0 0 1000 656"><g transform="matrix(1,0,0,1,-0.6060606060606233,-0.6718319313889083)"><svg viewBox="0 0 396 260" data-background-color="#ffffff" preserveAspectRatio="xMidYMid meet" height="656" width="1000" xmlns="http://www.w3.org/2000/svg" xmlns:xlink="http://www.w3.org/1999/xlink"><g id="tight-bounds" transform="matrix(1,0,0,1,0.2400000000000091,6.40000002140647)"><svg viewBox="0 0 395.52 247.2" height="247.2" width="395.52"><g><svg></svg></g><g><svg viewBox="0 0 395.52 247.2" height="247.2" width="395.52"><g transform="matrix(1,0,0,1,39.55199999999999,113.91353580923226)"><svg viewBox="0 0 316.416 19.372928381535488" height="19.372928381535488" width="316.416"><g><svg viewBox="0 0 316.416 19.372928381535488" height="19.372928381535488" width="316.416"><g><svg viewBox="0 0 316.416 19.372928381535488" height="19.372928381535488" width="316.416"><g><svg viewBox="0 0 316.416 19.372928381535488" height="19.372928381535488" width="316.416"><g><svg viewBox="0 0 316.416 19.372928381535488" height="19.372928381535488" width="316.416"><g><svg viewBox="0 0 316.416 19.372928381535488" height="19.372928381535488" width="316.416"><g transform="matrix(1,0,0,1,0,0)"><svg width="316.416" viewBox="4.75 -37.400001525878906 620.5999755859375 38" height="19.372928381535488" data-palette-color="#7b6e6e"><path d="M4.75 0L4.75-34.9 14.5-34.9Q20.9-34.9 24.05-30.5 27.2-26.1 27.2-17.45L27.2-17.45Q27.2-8.8 24.05-4.4 20.9 0 14.5 0L14.5 0 4.75 0ZM8.95-3.65L14.3-3.65Q18.5-3.65 20.63-6.55 22.75-9.45 22.75-14.75L22.75-14.75 22.75-20.15Q22.75-25.45 20.63-28.35 18.5-31.25 14.3-31.25L14.3-31.25 8.95-31.25 8.95-3.65ZM56.75 0L36 0 36-34.9 40.2-34.9 40.2-3.65 56.75-3.65 56.75 0ZM107.54 0L102.44 0 93.19-25.8 97.24-25.8 100.94-15 104.94-3.35 105.14-3.35 109.14-15 112.84-25.8 116.79-25.8 107.54 0ZM136.59-31.5L136.59-31.5Q134.84-31.5 134.14-32.23 133.44-32.95 133.44-34.05L133.44-34.05 133.44-34.85Q133.44-35.95 134.14-36.68 134.84-37.4 136.59-37.4L136.59-37.4Q138.34-37.4 139.04-36.68 139.74-35.95 139.74-34.85L139.74-34.85 139.74-34.05Q139.74-32.95 139.04-32.23 138.34-31.5 136.59-31.5ZM125.29 0L125.29-3.4 134.59-3.4 134.59-22.4 125.29-22.4 125.29-25.8 138.59-25.8 138.59-3.4 147.29-3.4 147.29 0 125.29 0ZM164.99 0.6L164.99 0.6Q162.29 0.6 160.11-0.35 157.94-1.3 156.41-3.08 154.89-4.85 154.09-7.33 153.29-9.8 153.29-12.9L153.29-12.9Q153.29-15.95 154.09-18.45 154.89-20.95 156.41-22.73 157.94-24.5 160.11-25.45 162.29-26.4 164.99-26.4L164.99-26.4Q167.69-26.4 169.86-25.45 172.04-24.5 173.56-22.73 175.09-20.95 175.89-18.45 176.69-15.95 176.69-12.9L176.69-12.9Q176.69-9.8 175.89-7.33 175.09-4.85 173.56-3.08 172.04-1.3 169.86-0.35 167.69 0.6 164.99 0.6ZM164.99-2.85L164.99-2.85Q168.34-2.85 170.39-4.85 172.44-6.85 172.44-11.05L172.44-11.05 172.44-14.75Q172.44-18.95 170.39-20.95 168.34-22.95 164.99-22.95L164.99-22.95Q161.64-22.95 159.59-20.95 157.54-18.95 157.54-14.75L157.54-14.75 157.54-11.05Q157.54-6.85 159.59-4.85 161.64-2.85 164.99-2.85ZM183.99 0L183.99-3.4 192.99-3.4 192.99-33.6 183.99-33.6 183.99-37 196.99-37 196.99-3.4 205.99-3.4 205.99 0 183.99 0ZM225.43 0.6L225.43 0.6Q222.63 0.6 220.41-0.35 218.18-1.3 216.61-3.08 215.03-4.85 214.18-7.33 213.33-9.8 213.33-12.85L213.33-12.85Q213.33-15.95 214.21-18.45 215.08-20.95 216.63-22.73 218.18-24.5 220.36-25.45 222.53-26.4 225.18-26.4L225.18-26.4Q227.78-26.4 229.91-25.45 232.03-24.5 233.53-22.83 235.03-21.15 235.83-18.85 236.63-16.55 236.63-13.8L236.63-13.8 236.63-11.9 217.53-11.9 217.53-10.7Q217.53-9 218.08-7.55 218.63-6.1 219.66-5.05 220.68-4 222.16-3.43 223.63-2.85 225.43-2.85L225.43-2.85Q228.03-2.85 229.93-4.05 231.83-5.25 232.83-7.35L232.83-7.35 235.78-5.35Q234.63-2.75 231.96-1.07 229.28 0.6 225.43 0.6ZM225.18-23.1L225.18-23.1Q223.53-23.1 222.13-22.5 220.73-21.9 219.71-20.85 218.68-19.8 218.11-18.38 217.53-16.95 217.53-15.25L217.53-15.25 217.53-14.9 232.33-14.9 232.33-15.45Q232.33-17.15 231.81-18.55 231.28-19.95 230.36-20.98 229.43-22 228.11-22.55 226.78-23.1 225.18-23.1ZM248.88 0L244.88 0 244.88-25.8 248.88-25.8 248.88-21.6 249.08-21.6Q249.48-22.55 250.08-23.43 250.68-24.3 251.56-24.95 252.43-25.6 253.63-26 254.83-26.4 256.43-26.4L256.43-26.4Q260.48-26.4 262.93-23.83 265.38-21.25 265.38-16.55L265.38-16.55 265.38 0 261.38 0 261.38-15.85Q261.38-19.4 259.83-21.13 258.28-22.85 255.28-22.85L255.28-22.85Q254.08-22.85 252.93-22.55 251.78-22.25 250.88-21.65 249.98-21.05 249.43-20.1 248.88-19.15 248.88-17.9L248.88-17.9 248.88 0ZM285.88 0.6L285.88 0.6Q283.08 0.6 280.9-0.38 278.73-1.35 277.23-3.1 275.73-4.85 274.95-7.35 274.18-9.85 274.18-12.9L274.18-12.9Q274.18-15.95 274.98-18.45 275.78-20.95 277.28-22.73 278.78-24.5 280.93-25.45 283.08-26.4 285.83-26.4L285.83-26.4Q289.58-26.4 291.93-24.75 294.28-23.1 295.38-20.45L295.38-20.45 292.18-18.75Q291.48-20.75 289.85-21.85 288.23-22.95 285.83-22.95L285.83-22.95Q284.08-22.95 282.7-22.38 281.33-21.8 280.38-20.75 279.43-19.7 278.95-18.25 278.48-16.8 278.48-15.1L278.48-15.1 278.48-10.7Q278.48-9 278.95-7.55 279.43-6.1 280.38-5.05 281.33-4 282.73-3.43 284.13-2.85 285.93-2.85L285.93-2.85Q288.53-2.85 290.23-4.05 291.93-5.25 292.93-7.35L292.93-7.35 295.78-5.4Q294.63-2.8 292.2-1.1 289.78 0.6 285.88 0.6ZM315.43 0.6L315.43 0.6Q312.63 0.6 310.4-0.35 308.18-1.3 306.6-3.08 305.03-4.85 304.18-7.33 303.33-9.8 303.33-12.85L303.33-12.85Q303.33-15.95 304.2-18.45 305.08-20.95 306.63-22.73 308.18-24.5 310.35-25.45 312.53-26.4 315.18-26.4L315.18-26.4Q317.78-26.4 319.9-25.45 322.03-24.5 323.53-22.83 325.03-21.15 325.83-18.85 326.63-16.55 326.63-13.8L326.63-13.8 326.63-11.9 307.53-11.9 307.53-10.7Q307.53-9 308.08-7.55 308.63-6.1 309.65-5.05 310.68-4 312.15-3.43 313.63-2.85 315.43-2.85L315.43-2.85Q318.03-2.85 319.93-4.05 321.83-5.25 322.83-7.35L322.83-7.35 325.78-5.35Q324.63-2.75 321.95-1.07 319.28 0.6 315.43 0.6ZM315.18-23.1L315.18-23.1Q313.53-23.1 312.13-22.5 310.73-21.9 309.7-20.85 308.68-19.8 308.1-18.38 307.53-16.95 307.53-15.25L307.53-15.25 307.53-14.9 322.33-14.9 322.33-15.45Q322.33-17.15 321.8-18.55 321.28-19.95 320.35-20.98 319.43-22 318.1-22.55 316.78-23.1 315.18-23.1ZM381.22 0L381.22-4.2 381.02-4.2Q378.52 0.6 373.07 0.6L373.07 0.6Q368.32 0.6 365.65-2.95 362.97-6.5 362.97-12.9L362.97-12.9Q362.97-19.3 365.65-22.85 368.32-26.4 373.07-26.4L373.07-26.4Q378.52-26.4 381.02-21.6L381.02-21.6 381.22-21.6 381.22-37 385.22-37 385.22 0 381.22 0ZM374.62-2.95L374.62-2.95Q375.97-2.95 377.17-3.3 378.37-3.65 379.27-4.33 380.17-5 380.7-5.98 381.22-6.95 381.22-8.25L381.22-8.25 381.22-17.55Q381.22-18.85 380.7-19.83 380.17-20.8 379.27-21.48 378.37-22.15 377.17-22.5 375.97-22.85 374.62-22.85L374.62-22.85Q371.12-22.85 369.2-20.73 367.27-18.6 367.27-15.1L367.27-15.1 367.27-10.7Q367.27-7.2 369.2-5.08 371.12-2.95 374.62-2.95ZM405.42 0.6L405.42 0.6Q402.62 0.6 400.39-0.35 398.17-1.3 396.59-3.08 395.02-4.85 394.17-7.33 393.32-9.8 393.32-12.85L393.32-12.85Q393.32-15.95 394.19-18.45 395.07-20.95 396.62-22.73 398.17-24.5 400.34-25.45 402.52-26.4 405.17-26.4L405.17-26.4Q407.77-26.4 409.89-25.45 412.02-24.5 413.52-22.83 415.02-21.15 415.82-18.85 416.62-16.55 416.62-13.8L416.62-13.8 416.62-11.9 397.52-11.9 397.52-10.7Q397.52-9 398.07-7.55 398.62-6.1 399.64-5.05 400.67-4 402.14-3.43 403.62-2.85 405.42-2.85L405.42-2.85Q408.02-2.85 409.92-4.05 411.82-5.25 412.82-7.35L412.82-7.35 415.77-5.35Q414.62-2.75 411.94-1.07 409.27 0.6 405.42 0.6ZM405.17-23.1L405.17-23.1Q403.52-23.1 402.12-22.5 400.72-21.9 399.69-20.85 398.67-19.8 398.09-18.38 397.52-16.95 397.52-15.25L397.52-15.25 397.52-14.9 412.32-14.9 412.32-15.45Q412.32-17.15 411.79-18.55 411.27-19.95 410.34-20.98 409.42-22 408.09-22.55 406.77-23.1 405.17-23.1ZM446.27 0L436.22 0Q433.27 0 431.89-1.65 430.52-3.3 430.52-5.9L430.52-5.9 430.52-22.4 421.92-22.4 421.92-25.8 428.32-25.8Q429.62-25.8 430.14-26.33 430.67-26.85 430.67-28.15L430.67-28.15 430.67-34.9 434.52-34.9 434.52-25.8 446.27-25.8 446.27-22.4 434.52-22.4 434.52-3.4 446.27-3.4 446.27 0ZM465.41 0.6L465.41 0.6Q462.61 0.6 460.39-0.35 458.16-1.3 456.59-3.08 455.01-4.85 454.16-7.33 453.31-9.8 453.31-12.85L453.31-12.85Q453.31-15.95 454.19-18.45 455.06-20.95 456.61-22.73 458.16-24.5 460.34-25.45 462.51-26.4 465.16-26.4L465.16-26.4Q467.76-26.4 469.89-25.45 472.01-24.5 473.51-22.83 475.01-21.15 475.81-18.85 476.61-16.55 476.61-13.8L476.61-13.8 476.61-11.9 457.51-11.9 457.51-10.7Q457.51-9 458.06-7.55 458.61-6.1 459.64-5.05 460.66-4 462.14-3.43 463.61-2.85 465.41-2.85L465.41-2.85Q468.01-2.85 469.91-4.05 471.81-5.25 472.81-7.35L472.81-7.35 475.76-5.35Q474.61-2.75 471.94-1.07 469.26 0.6 465.41 0.6ZM465.16-23.1L465.16-23.1Q463.51-23.1 462.11-22.5 460.71-21.9 459.69-20.85 458.66-19.8 458.09-18.38 457.51-16.95 457.51-15.25L457.51-15.25 457.51-14.9 472.31-14.9 472.31-15.45Q472.31-17.15 471.79-18.55 471.26-19.95 470.34-20.98 469.41-22 468.09-22.55 466.76-23.1 465.16-23.1ZM495.86 0.6L495.86 0.6Q493.06 0.6 490.89-0.38 488.71-1.35 487.21-3.1 485.71-4.85 484.94-7.35 484.16-9.85 484.16-12.9L484.16-12.9Q484.16-15.95 484.96-18.45 485.76-20.95 487.26-22.73 488.76-24.5 490.91-25.45 493.06-26.4 495.81-26.4L495.81-26.4Q499.56-26.4 501.91-24.75 504.26-23.1 505.36-20.45L505.36-20.45 502.16-18.75Q501.46-20.75 499.84-21.85 498.21-22.95 495.81-22.95L495.81-22.95Q494.06-22.95 492.69-22.38 491.31-21.8 490.36-20.75 489.41-19.7 488.94-18.25 488.46-16.8 488.46-15.1L488.46-15.1 488.46-10.7Q488.46-9 488.94-7.55 489.41-6.1 490.36-5.05 491.31-4 492.71-3.43 494.11-2.85 495.91-2.85L495.91-2.85Q498.51-2.85 500.21-4.05 501.91-5.25 502.91-7.35L502.91-7.35 505.76-5.4Q504.61-2.8 502.19-1.1 499.76 0.6 495.86 0.6ZM536.26 0L526.21 0Q523.26 0 521.88-1.65 520.51-3.3 520.51-5.9L520.51-5.9 520.51-22.4 511.91-22.4 511.91-25.8 518.31-25.8Q519.61-25.8 520.13-26.33 520.66-26.85 520.66-28.15L520.66-28.15 520.66-34.9 524.51-34.9 524.51-25.8 536.26-25.8 536.26-22.4 524.51-22.4 524.51-3.4 536.26-3.4 536.26 0ZM556.55-31.5L556.55-31.5Q554.8-31.5 554.1-32.23 553.4-32.95 553.4-34.05L553.4-34.05 553.4-34.85Q553.4-35.95 554.1-36.68 554.8-37.4 556.55-37.4L556.55-37.4Q558.3-37.4 559-36.68 559.7-35.95 559.7-34.85L559.7-34.85 559.7-34.05Q559.7-32.95 559-32.23 558.3-31.5 556.55-31.5ZM545.25 0L545.25-3.4 554.55-3.4 554.55-22.4 545.25-22.4 545.25-25.8 558.55-25.8 558.55-3.4 567.25-3.4 567.25 0 545.25 0ZM584.95 0.6L584.95 0.6Q582.25 0.6 580.08-0.35 577.9-1.3 576.38-3.08 574.85-4.85 574.05-7.33 573.25-9.8 573.25-12.9L573.25-12.9Q573.25-15.95 574.05-18.45 574.85-20.95 576.38-22.73 577.9-24.5 580.08-25.45 582.25-26.4 584.95-26.4L584.95-26.4Q587.65-26.4 589.83-25.45 592-24.5 593.53-22.73 595.05-20.95 595.85-18.45 596.65-15.95 596.65-12.9L596.65-12.9Q596.65-9.8 595.85-7.33 595.05-4.85 593.53-3.08 592-1.3 589.83-0.35 587.65 0.6 584.95 0.6ZM584.95-2.85L584.95-2.85Q588.3-2.85 590.35-4.85 592.4-6.85 592.4-11.05L592.4-11.05 592.4-14.75Q592.4-18.95 590.35-20.95 588.3-22.95 584.95-22.95L584.95-22.95Q581.6-22.95 579.55-20.95 577.5-18.95 577.5-14.75L577.5-14.75 577.5-11.05Q577.5-6.85 579.55-4.85 581.6-2.85 584.95-2.85ZM608.85 0L604.85 0 604.85-25.8 608.85-25.8 608.85-21.6 609.05-21.6Q609.45-22.55 610.05-23.43 610.65-24.3 611.52-24.95 612.4-25.6 613.6-26 614.8-26.4 616.4-26.4L616.4-26.4Q620.45-26.4 622.9-23.83 625.35-21.25 625.35-16.55L625.35-16.55 625.35 0 621.35 0 621.35-15.85Q621.35-19.4 619.8-21.13 618.25-22.85 615.25-22.85L615.25-22.85Q614.05-22.85 612.9-22.55 611.75-22.25 610.85-21.65 609.95-21.05 609.4-20.1 608.85-19.15 608.85-17.9L608.85-17.9 608.85 0Z" opacity="1" transform="matrix(1,0,0,1,0,0)" fill="#7b6e6e" class="undefined-text-0" data-fill-palette-color="primary" id="text-0"></path></svg></g></svg></g></svg></g></svg></g></svg></g></svg></g></svg></g><g mask="url(#36b51c2d-bf88-4020-886b-54f1f5a7dbe6)"><g transform="matrix(4.086666666666667, 0, 0, 4.086666666666667, 75.15055282592772, 0.9999999999999858)"><svg xmlns="http://www.w3.org/2000/svg" data-name="Layer 1" viewBox="1.9973434209823608 2 60.00462341308594 60" x="0" y="0" height="60" width="60.00462341308594" class="icon-none" data-fill-palette-color="accent" id="none"><path d="M60.873 29.689a27.366 27.366 0 0 0-5.394-14.2A2.924 2.924 0 0 0 55.9 14a3.026 3.026 0 0 0-3.051-3 3.064 3.064 0 0 0-1.243 0.266 28.17 28.17 0 0 0-6.016-4.119A3.03 3.03 0 0 0 41.25 5.364 28.8 28.8 0 0 0 32.508 4a28.232 28.232 0 0 0-3.048 0.177A7.966 7.966 0 0 0 24.034 2c-4.153 0-7.594 3.31-8.32 7.672-3.942 0.8-6.934 4.609-6.934 9.2a10.338 10.338 0 0 0 0.214 2.04C5.023 21.692 2 25.508 2 30.125A9.348 9.348 0 0 0 7.571 38.9 9.877 9.877 0 0 0 5.39 45.125c0 5.178 3.794 9.375 8.474 9.375a7.707 7.707 0 0 0 1.844-0.237c0.7 4.393 4.153 7.737 8.326 7.737a7.966 7.966 0 0 0 5.426-2.177A28.232 28.232 0 0 0 32.508 60a28.8 28.8 0 0 0 8.742-1.364 3.03 3.03 0 0 0 4.338-1.783A28.17 28.17 0 0 0 51.6 52.734 3.064 3.064 0 0 0 52.847 53 3.026 3.026 0 0 0 55.9 50a2.924 2.924 0 0 0-0.419-1.492 27.366 27.366 0 0 0 5.394-14.2 2.933 2.933 0 0 0 0-4.622ZM53.93 16.8a25.371 25.371 0 0 1 4.824 12.223A3.03 3.03 0 0 0 56.085 31H32.508V27H45.359a1.024 1.024 0 0 0 0.858-0.463l6.2-9.58A2.7 2.7 0 0 0 53.93 16.8ZM45.4 9.323a26.065 26.065 0 0 1 4.73 3.332A2.926 2.926 0 0 0 49.8 14a2.955 2.955 0 0 0 0.812 2.025L44.8 25H32.508V21.362l8.982-10.6A3.086 3.086 0 0 0 42.678 11 3.047 3.047 0 0 0 45.4 9.323ZM32.508 6a26.734 26.734 0 0 1 7.3 1.028A2.8 2.8 0 0 0 40 9.4l-7.488 8.836V11.375a10.029 10.029 0 0 0-1.5-5.325C31.5 6.022 32 6 32.508 6ZM11.726 20.84c1.624 2 3.593 3.033 5.561 2.909 2.188-0.142 4.289-1.686 5.917-4.348l1.743 1.032c-1.981 3.239-4.654 5.126-7.526 5.312q-0.233 0.015-0.465 0.015a8.89 8.89 0 0 1-6.82-3.674Zm-0.863 16.508l-1.744-1.03C11.211 32.889 14.049 31 17.109 31h0c3.06 0 5.9 1.889 7.99 5.318l-1.744 1.03C21.646 34.544 19.427 33 17.11 33S12.573 34.544 10.863 37.348ZM25.729 54.375a5.111 5.111 0 0 0-3.952-2.042 5.11 5.11 0 0 0-3.952 2.042l-1.588-1.25a7.111 7.111 0 0 1 5.54-2.792 7.113 7.113 0 0 1 5.54 2.792ZM22.347 13.652c-0.089 0-0.18 0.006-0.27 0.006a7.453 7.453 0 0 1-5.366-2.4l1.476-1.377a5.324 5.324 0 0 0 4.079 1.778 4.867 4.867 0 0 0 3.575-1.863l1.583 1.256A6.885 6.885 0 0 1 22.347 13.652Zm8.658 44.3a10.029 10.029 0 0 0 1.5-5.325V45.762L40 54.6a2.8 2.8 0 0 0-0.191 2.374A26.734 26.734 0 0 1 32.508 58C32 58 31.5 57.978 31.005 57.95ZM41.49 53.236l-8.982-10.6V39H44.8l5.808 8.975A2.955 2.955 0 0 0 49.8 50a2.926 2.926 0 0 0 0.337 1.345 26.065 26.065 0 0 1-4.73 3.332A3.047 3.047 0 0 0 42.678 53 3.086 3.086 0 0 0 41.49 53.236Zm10.927-6.193l-6.2-9.58A1.024 1.024 0 0 0 45.359 37H32.508V33H56.085a3.03 3.03 0 0 0 2.669 1.981A25.371 25.371 0 0 1 53.93 47.2a2.7 2.7 0 0 0-1.513-0.161Z" fill="#4b91f1" data-fill-palette-color="accent"></path></svg></g></g></svg></g><defs><mask id="4a6ac55f-3bb1-4dca-aad3-a3fd3450cbad"><rect width="640" height="400" fill="white"></rect><rect width="348.05760000000004" height="35.50865376440655" fill="black" x="145.97119999999998" y="182.2456731177967" id="transform-me" transform="matrix(1,0,0,1,-122.24000000000001,-76.4)"></rect></mask><mask id="146563f3-9e08-4ef4-b5e3-c3b3f49d7ec1"><rect width="640" height="400" fill="white"></rect><rect width="348.05760000000004" height="29.0747785101169" fill="black" x="145.97119999999998" y="185.46261074494154" id="transform-me" transform="matrix(1,0,0,1,-122.24000000000001,-76.4)"></rect></mask><mask id="d6ee80c1-a846-4534-aa8a-2736b7a78ea6"><rect width="640" height="400" fill="white"></rect><rect width="348.05760000000004" height="37.49377133245293" fill="black" x="145.97119999999998" y="181.25311433377354" id="transform-me" transform="matrix(1,0,0,1,-122.24000000000001,-76.4)"></rect></mask><mask id="9bdd8a17-7293-4556-a379-1e3d1bdebddb"><rect width="640" height="400" fill="white"></rect><rect width="348.05760000000004" height="39.1046830701572" fill="black" x="145.97119999999998" y="180.4476584649214" id="transform-me" transform="matrix(1,0,0,1,-122.24000000000001,-76.4)"></rect></mask><mask id="6d0326f3-f70b-445c-918e-14ad98a40f53"><rect width="640" height="400" fill="white"></rect><rect width="348.05760000000004" height="38.446455811133895" fill="black" x="145.97119999999998" y="180.77677209443306" id="transform-me" transform="matrix(1,0,0,1,-122.24000000000001,-76.4)"></rect></mask><mask id="5d6870f1-1a35-4999-8e26-67759c15ad16"><rect width="640" height="400" fill="white"></rect><rect width="348.05760000000004" height="36.62167641078765" fill="black" x="145.97119999999998" y="181.68916179460618" id="transform-me" transform="matrix(1,0,0,1,-122.24000000000001,-76.4)"></rect></mask><mask id="9a37cd6a-fc86-4c21-8e54-9103cf66b248"><rect width="640" height="400" fill="white"></rect><rect width="348.05760000000004" height="36.62167641078765" fill="black" x="145.97119999999998" y="181.68916179460618" id="transform-me" transform="matrix(1,0,0,1,-122.24000000000001,-76.4)"></rect></mask><mask id="b32adb4f-2082-4b75-86c9-c25378495b38"><rect width="640" height="400" fill="white"></rect><rect width="348.05760000000004" height="36.62167641078765" fill="black" x="145.97119999999998" y="181.68916179460618" id="transform-me" transform="matrix(1,0,0,1,-122.24000000000001,-76.4)"></rect></mask><mask id="54c0ae25-efd9-48fb-b708-e3834009ed2d"><rect width="640" height="400" fill="white"></rect><rect width="348.05760000000004" height="36.62167641078765" fill="black" x="145.97119999999998" y="181.68916179460618" id="transform-me" transform="matrix(1,0,0,1,-122.24000000000001,-76.4)"></rect></mask><mask id="22195ec0-d129-4379-bd34-9050504bff10"><rect width="640" height="400" fill="white"></rect><rect width="348.05760000000004" height="36.62167641078765" fill="black" x="145.97119999999998" y="181.68916179460618" id="transform-me" transform="matrix(1,0,0,1,-122.24000000000001,-76.4)"></rect></mask><mask id="da0de563-1fa7-4918-bf85-dc08e3eaa568"><rect width="640" height="400" fill="white"></rect><rect width="348.05760000000004" height="36.62167641078765" fill="black" x="145.97119999999998" y="181.68916179460618" id="transform-me" transform="matrix(1,0,0,1,-122.24000000000001,-76.4)"></rect></mask><mask id="350bf5ac-0c78-4d62-8cfb-c66907e39914"><rect width="640" height="400" fill="white"></rect><rect width="348.05760000000004" height="36.62167641078765" fill="black" x="145.97119999999998" y="181.68916179460618" id="transform-me" transform="matrix(1,0,0,1,-122.24000000000001,-76.4)"></rect></mask><mask id="be6e09fe-534a-4b30-bb71-1baac20116c6"><rect width="640" height="400" fill="white"></rect><rect width="348.05760000000004" height="36.62167641078765" fill="black" x="145.97119999999998" y="181.68916179460618" id="transform-me" transform="matrix(1,0,0,1,-122.24000000000001,-76.4)"></rect></mask><mask id="607d6903-7674-4560-97f4-aec4e44f9253"><rect width="640" height="400" fill="white"></rect><rect width="348.05760000000004" height="36.62167641078765" fill="black" x="145.97119999999998" y="181.68916179460618" id="transform-me" transform="matrix(1,0,0,1,-122.24000000000001,-76.4)"></rect></mask><mask id="597b11c0-7800-4c12-9279-df31cc2b75ad"><rect width="640" height="400" fill="white"></rect><rect width="348.05760000000004" height="36.62167641078765" fill="black" x="145.97119999999998" y="181.68916179460618" id="transform-me" transform="matrix(1,0,0,1,-122.24000000000001,-76.4)"></rect></mask><mask id="5be27ecb-6f45-4adf-921b-d09bcd236eb3"><rect width="640" height="400" fill="white"></rect><rect width="348.05760000000004" height="36.62167641078765" fill="black" x="145.97119999999998" y="181.68916179460618" id="transform-me" transform="matrix(1,0,0,1,-122.24000000000001,-76.4)"></rect></mask><mask id="fb91ed8c-e6ef-45c1-aca5-1bbf67eaf55c"><rect width="640" height="400" fill="white"></rect><rect width="348.05760000000004" height="36.62167641078765" fill="black" x="145.97119999999998" y="181.68916179460618" id="transform-me" transform="matrix(1,0,0,1,-122.24000000000001,-76.4)"></rect></mask><mask id="a598c47c-c8b3-4c36-b083-29714ea0d19e"><rect width="640" height="400" fill="white"></rect><rect width="348.05760000000004" height="36.62167641078765" fill="black" x="145.97119999999998" y="181.68916179460618" id="transform-me" transform="matrix(1,0,0,1,-122.24000000000001,-76.4)"></rect></mask><mask id="25dee34a-a793-4fd6-9914-6ab097052f4e"><rect width="640" height="400" fill="white"></rect><rect width="348.05760000000004" height="36.62167641078765" fill="black" x="145.97119999999998" y="181.68916179460618" id="transform-me" transform="matrix(1,0,0,1,-122.24000000000001,-76.4)"></rect></mask><mask id="49b922ec-8ec4-414f-b0c1-210807b36251"><rect width="640" height="400" fill="white"></rect><rect width="348.05760000000004" height="36.62167641078765" fill="black" x="145.97119999999998" y="181.68916179460618" id="transform-me" transform="matrix(1,0,0,1,-122.24000000000001,-76.4)"></rect></mask><mask id="549cb083-43be-4265-b477-8d6f56294fb2"><rect width="640" height="400" fill="white"></rect><rect width="348.05760000000004" height="36.62167641078765" fill="black" x="145.97119999999998" y="181.68916179460618" id="transform-me" transform="matrix(1,0,0,1,-122.24000000000001,-76.4)"></rect></mask><mask id="58f78091-0014-448f-ae40-61a137575efc"><rect width="640" height="400" fill="white"></rect><rect width="348.05760000000004" height="36.62167641078765" fill="black" x="145.97119999999998" y="181.68916179460618" id="transform-me" transform="matrix(1,0,0,1,-122.24000000000001,-76.4)"></rect></mask><mask id="48d475fb-80b1-4caf-9232-55b0c2995fc9"><rect width="640" height="400" fill="white"></rect><rect width="348.05760000000004" height="36.62167641078765" fill="black" x="145.97119999999998" y="181.68916179460618" id="transform-me" transform="matrix(1,0,0,1,-122.24000000000001,-76.4)"></rect></mask><mask id="cd337037-0504-43d2-a65e-cce7dd15cc24"><rect width="640" height="400" fill="white"></rect><rect width="348.05760000000004" height="36.62167641078765" fill="black" x="145.97119999999998" y="181.68916179460618" id="transform-me" transform="matrix(1,0,0,1,-122.24000000000001,-76.4)"></rect></mask><mask id="d3e0fd28-3eaa-4c56-817e-1569879f699b"><rect width="640" height="400" fill="white"></rect><rect width="348.05760000000004" height="36.62167641078765" fill="black" x="145.97119999999998" y="181.68916179460618" id="transform-me" transform="matrix(1,0,0,1,-122.24000000000001,-76.4)"></rect></mask><mask id="53da5adf-1859-47d0-b0c6-86da4bbf79c3"><rect width="640" height="400" fill="white"></rect><rect width="348.05760000000004" height="36.62167641078765" fill="black" x="145.97119999999998" y="181.68916179460618" id="transform-me" transform="matrix(1,0,0,1,-122.24000000000001,-76.4)"></rect></mask><mask id="3225e980-d42c-4ca8-a718-7a1835bebf0d"><rect width="640" height="400" fill="white"></rect><rect width="348.05760000000004" height="36.62167641078765" fill="black" x="145.97119999999998" y="181.68916179460618" id="transform-me" transform="matrix(1,0,0,1,-122.24000000000001,-76.4)"></rect></mask><mask id="d9a1756c-0c87-4313-a6cc-ea3beb725706"><rect width="640" height="400" fill="white"></rect><rect width="348.05760000000004" height="29.408677615549045" fill="black" x="145.97119999999998" y="185.29566119222548" id="transform-me" transform="matrix(1,0,0,1,-122.24000000000001,-76.4)"></rect></mask><mask id="4ca92ab6-a72f-4d50-b610-36703f20b313"><rect width="640" height="400" fill="white"></rect><rect width="348.05760000000004" height="30.835156388334035" fill="black" x="145.97119999999998" y="184.58242180583298" id="transform-me" transform="matrix(1,0,0,1,-122.24000000000001,-76.4)"></rect></mask><mask id="4583475c-75ac-4b39-8e3e-17ea95f92fc3"><rect width="640" height="400" fill="white"></rect><rect width="348.05760000000004" height="39.77009714693471" fill="black" x="145.97119999999998" y="180.11495142653266" id="transform-me" transform="matrix(1,0,0,1,-122.24000000000001,-76.4)"></rect></mask><mask id="e91f90cc-31df-4f81-a9c8-e0c8fd9d4621"><rect width="640" height="400" fill="white"></rect><rect width="348.05760000000004" height="38.446455811133895" fill="black" x="145.97119999999998" y="180.77677209443306" id="transform-me" transform="matrix(1,0,0,1,-122.24000000000001,-76.4)"></rect></mask><mask id="d58b8e04-5c3c-42bd-b666-5d341c5e1fd7"><rect width="640" height="400" fill="white"></rect><rect width="348.05760000000004" height="37.81357745849084" fill="black" x="145.97119999999998" y="181.09321127075458" id="transform-me" transform="matrix(1,0,0,1,-122.24000000000001,-76.4)"></rect></mask><mask id="33170c3c-41e9-4b29-ab28-d3585bdf8d6a"><rect width="640" height="400" fill="white"></rect><rect width="348.05760000000004" height="28.511453084775194" fill="black" x="145.97119999999998" y="185.7442734576124" id="transform-me" transform="matrix(1,0,0,1,-122.24000000000001,-76.4)"></rect></mask><mask id="327781cb-a85b-4a17-b488-cfd5eb7d8ecf"><rect width="640" height="400" fill="white"></rect><rect width="348.05760000000004" height="28.51989526273423" fill="black" x="145.97119999999998" y="185.7400523686329" id="transform-me" transform="matrix(1,0,0,1,-122.24000000000001,-76.4)"></rect></mask><mask id="053567a1-ad7b-4974-936f-a7cc8715635f"><rect width="640" height="400" fill="white"></rect><rect width="348.05760000000004" height="28.493945957356026" fill="black" x="145.97119999999998" y="185.753027021322" id="transform-me" transform="matrix(1,0,0,1,-122.24000000000001,-76.4)"></rect></mask><mask id="c256f412-cb9d-4096-bd57-bdd5df94f3d9"><rect width="640" height="400" fill="white"></rect><rect width="348.05760000000004" height="28.51989526273423" fill="black" x="145.97119999999998" y="185.7400523686329" id="transform-me" transform="matrix(1,0,0,1,-122.24000000000001,-76.4)"></rect></mask><mask id="a7d6683d-8b04-43cc-ad19-2ac034328861"><rect width="640" height="400" fill="white"></rect><rect width="348.05760000000004" height="28.51989526273423" fill="black" x="145.97119999999998" y="185.7400523686329" id="transform-me" transform="matrix(1,0,0,1,-122.24000000000001,-76.4)"></rect></mask><mask id="22cb0fcd-b8be-44a9-ba14-52cbfc99af1c"><rect width="640" height="400" fill="white"></rect><rect width="348.05760000000004" height="28.51989526273423" fill="black" x="145.97119999999998" y="185.7400523686329" id="transform-me" transform="matrix(1,0,0,1,-122.24000000000001,-76.4)"></rect></mask><mask id="4ee2ce66-5acf-4d88-8111-23d4ec51a216"><rect width="640" height="400" fill="white"></rect><rect width="348.05760000000004" height="28.51989526273423" fill="black" x="145.97119999999998" y="185.7400523686329" id="transform-me" transform="matrix(1,0,0,1,-122.24000000000001,-76.4)"></rect></mask><mask id="214c25e4-832c-4102-908d-0126e5a60516"><rect width="640" height="400" fill="white"></rect><rect width="348.05760000000004" height="28.51989526273423" fill="black" x="145.97119999999998" y="185.7400523686329" id="transform-me" transform="matrix(1,0,0,1,-122.24000000000001,-76.4)"></rect></mask><mask id="5b321181-328a-4cea-ad7c-1356e5c8b063"><rect width="640" height="400" fill="white"></rect><rect width="348.05760000000004" height="28.51989526273423" fill="black" x="145.97119999999998" y="185.7400523686329" id="transform-me" transform="matrix(1,0,0,1,-122.24000000000001,-76.4)"></rect></mask><mask id="10341c93-310e-48d8-93f9-3a739d4de227"><rect width="640" height="400" fill="white"></rect><rect width="348.05760000000004" height="28.51989526273423" fill="black" x="145.97119999999998" y="185.7400523686329" id="transform-me" transform="matrix(1,0,0,1,-122.24000000000001,-76.4)"></rect></mask><mask id="e970e8fc-8ec8-4e78-885e-8ac9f0530681"><rect width="640" height="400" fill="white"></rect><rect width="348.05760000000004" height="28.51989526273423" fill="black" x="145.97119999999998" y="185.7400523686329" id="transform-me" transform="matrix(1,0,0,1,-122.24000000000001,-76.4)"></rect></mask><mask id="bdb4ae75-5725-4b49-a76e-dd01163f06b4"><rect width="640" height="400" fill="white"></rect><rect width="348.05760000000004" height="28.51989526273423" fill="black" x="145.97119999999998" y="185.7400523686329" id="transform-me" transform="matrix(1,0,0,1,-122.24000000000001,-76.4)"></rect></mask><mask id="580683d2-4c88-4d01-9a87-3067cf2dea66"><rect width="640" height="400" fill="white"></rect><rect width="348.05760000000004" height="28.51989526273423" fill="black" x="145.97119999999998" y="185.7400523686329" id="transform-me" transform="matrix(1,0,0,1,-122.24000000000001,-76.4)"></rect></mask><mask id="a276a971-3449-4247-9e0e-8ddbe2f0104d"><rect width="640" height="400" fill="white"></rect><rect width="348.05760000000004" height="28.51989526273423" fill="black" x="145.97119999999998" y="185.7400523686329" id="transform-me" transform="matrix(1,0,0,1,-122.24000000000001,-76.4)"></rect></mask><mask id="40fff194-820d-438e-a5a3-afebb4b5cfe7"><rect width="640" height="400" fill="white"></rect><rect width="348.05760000000004" height="28.51989526273423" fill="black" x="145.97119999999998" y="185.7400523686329" id="transform-me" transform="matrix(1,0,0,1,-122.24000000000001,-76.4)"></rect></mask><mask id="35040ecb-b75c-4a75-8167-fefeec4e6100"><rect width="640" height="400" fill="white"></rect><rect width="348.05760000000004" height="28.51989526273423" fill="black" x="145.97119999999998" y="185.7400523686329" id="transform-me" transform="matrix(1,0,0,1,-122.24000000000001,-76.4)"></rect></mask><mask id="ef8396a4-54d9-4b2a-8aa9-cc25ae62dbe0"><rect width="640" height="400" fill="white"></rect><rect width="348.05760000000004" height="28.51989526273423" fill="black" x="145.97119999999998" y="185.7400523686329" id="transform-me" transform="matrix(1,0,0,1,-122.24000000000001,-76.4)"></rect></mask><mask id="b7de35c9-b467-4a75-b5a2-d14dffafdd72"><rect width="640" height="400" fill="white"></rect><rect width="348.05760000000004" height="28.51989526273423" fill="black" x="145.97119999999998" y="185.7400523686329" id="transform-me" transform="matrix(1,0,0,1,-122.24000000000001,-76.4)"></rect></mask><mask id="57a8ab40-4d2f-4e22-a635-675aee2a1b87"><rect width="640" height="400" fill="white"></rect><rect width="348.05760000000004" height="28.51989526273423" fill="black" x="145.97119999999998" y="185.7400523686329" id="transform-me" transform="matrix(1,0,0,1,-122.24000000000001,-76.4)"></rect></mask><mask id="1b06f565-1e0c-4e85-8838-06569516792b"><rect width="640" height="400" fill="white"></rect><rect width="348.05760000000004" height="28.51989526273423" fill="black" x="145.97119999999998" y="185.7400523686329" id="transform-me" transform="matrix(1,0,0,1,-122.24000000000001,-76.4)"></rect></mask><mask id="c3195057-0a60-4ebb-af20-8cf254df5e77"><rect width="640" height="400" fill="white"></rect><rect width="348.05760000000004" height="28.51989526273423" fill="black" x="145.97119999999998" y="185.7400523686329" id="transform-me" transform="matrix(1,0,0,1,-122.24000000000001,-76.4)"></rect></mask><mask id="d4602f39-a416-4cfa-b3be-4d58b63fa22c"><rect width="640" height="400" fill="white"></rect><rect width="348.05760000000004" height="28.51989526273423" fill="black" x="145.97119999999998" y="185.7400523686329" id="transform-me" transform="matrix(1,0,0,1,-122.24000000000001,-76.4)"></rect></mask><mask id="9041c866-938b-44b6-94b1-c15574097e8e"><rect width="640" height="400" fill="white"></rect><rect width="348.05760000000004" height="28.51989526273423" fill="black" x="145.97119999999998" y="185.7400523686329" id="transform-me" transform="matrix(1,0,0,1,-122.24000000000001,-76.4)"></rect></mask><mask id="43bad67f-708c-44fa-90d8-7c607bbadb88"><rect width="640" height="400" fill="white"></rect><rect width="348.05760000000004" height="28.51989526273423" fill="black" x="145.97119999999998" y="185.7400523686329" id="transform-me" transform="matrix(1,0,0,1,-122.24000000000001,-76.4)"></rect></mask><mask id="a5822841-fe06-4bab-8ec7-3b3b705cf514"><rect width="640" height="400" fill="white"></rect><rect width="348.05760000000004" height="28.51989526273423" fill="black" x="145.97119999999998" y="185.7400523686329" id="transform-me" transform="matrix(1,0,0,1,-122.24000000000001,-76.4)"></rect></mask><mask id="8e84917b-5401-4508-9d93-808c89a22138"><rect width="640" height="400" fill="white"></rect><rect width="348.05760000000004" height="28.51989526273423" fill="black" x="145.97119999999998" y="185.7400523686329" id="transform-me" transform="matrix(1,0,0,1,-122.24000000000001,-76.4)"></rect></mask><mask id="18815df7-c8e1-4d6d-b743-e5dd1b086a79"><rect width="640" height="400" fill="white"></rect><rect width="348.05760000000004" height="28.51989526273423" fill="black" x="145.97119999999998" y="185.7400523686329" id="transform-me" transform="matrix(1,0,0,1,-122.24000000000001,-76.4)"></rect></mask><mask id="e311efb3-9729-4eb8-8885-1d85e873f5a9"><rect width="640" height="400" fill="white"></rect><rect width="348.05760000000004" height="28.51989526273423" fill="black" x="145.97119999999998" y="185.7400523686329" id="transform-me" transform="matrix(1,0,0,1,-122.24000000000001,-76.4)"></rect></mask><mask id="cb0cb12c-1259-44a7-9ce2-812f56cc5439"><rect width="640" height="400" fill="white"></rect><rect width="348.05760000000004" height="28.51989526273423" fill="black" x="145.97119999999998" y="185.7400523686329" id="transform-me" transform="matrix(1,0,0,1,-122.24000000000001,-76.4)"></rect></mask><mask id="8360992a-0587-4514-a351-d6f9021d7c65"><rect width="640" height="400" fill="white"></rect><rect width="348.05760000000004" height="28.51989526273423" fill="black" x="145.97119999999998" y="185.7400523686329" id="transform-me" transform="matrix(1,0,0,1,-122.24000000000001,-76.4)"></rect></mask><mask id="c3c2eed7-2bda-4904-9c0d-74822055b413"><rect width="640" height="400" fill="white"></rect><rect width="348.05760000000004" height="28.51989526273423" fill="black" x="145.97119999999998" y="185.7400523686329" id="transform-me" transform="matrix(1,0,0,1,-122.24000000000001,-76.4)"></rect></mask><mask id="abf4137b-d7d7-44de-8b0f-8f4e74faba12"><rect width="640" height="400" fill="white"></rect><rect width="348.05760000000004" height="28.51989526273423" fill="black" x="145.97119999999998" y="185.7400523686329" id="transform-me" transform="matrix(1,0,0,1,-122.24000000000001,-76.4)"></rect></mask><mask id="0c187372-550f-40ee-9f4d-3160b10274d8"><rect width="640" height="400" fill="white"></rect><rect width="348.05760000000004" height="28.51989526273423" fill="black" x="145.97119999999998" y="185.7400523686329" id="transform-me" transform="matrix(1,0,0,1,-122.24000000000001,-76.4)"></rect></mask><mask id="36b51c2d-bf88-4020-886b-54f1f5a7dbe6"><rect width="640" height="400" fill="white"></rect><rect width="348.05760000000004" height="28.51989526273423" fill="black" x="145.97119999999998" y="185.7400523686329" id="transform-me" transform="matrix(1,0,0,1,-122.24000000000001,-76.4)"></rect></mask></defs></svg><rect width="395.52" height="247.2" fill="none" stroke="none" visibility="hidden"></rect></g></svg></g></svg>